<svg xmlns="http://www.w3.org/2000/svg" xmlns:xlink="http://www.w3.org/1999/xlink" fill="none" version="1.1" width="15.05810546875" height="13.25" viewBox="0 0 15.05810546875 13.25"><defs><mask id="master_svg0_112_28137/112_19069" style="mask-type:alpha" maskUnits="userSpaceOnUse"><g><path d="M10.25211345953369,5.71841353125L14.649454459533692,5.25623450125C14.729704459533691,5.24779919125,14.810764459533692,5.26852373125,14.880024459533692,5.31519143125C15.05371445953369,5.43221553125,15.110004459533691,5.67879253125,15.00575445953369,5.86593453125L13.13564445953369,9.22300453125C13.119184459533692,9.252544531249999,13.099214459533691,9.27954453125,13.076244459533692,9.303314531249999C12.93067445953369,9.45389453125,12.698454459533691,9.44513453125,12.557574459533692,9.28376453125L10.030356459533692,6.38887453125C9.974178459533691,6.32451453125,9.93872785953369,6.24213653125,9.92951924953369,6.1545225312500005C9.906427459533692,5.93481953125,10.050859459533692,5.73956553125,10.25211345953369,5.71841353125Z" fill-rule="evenodd" fill="#FFFFFF" fill-opacity="1"/></g></mask></defs><g><g><g><path d="M6.625,13.25Q7.69383,13.25,8.70029,12.9183Q8.79399,12.8874,8.87361,12.8292Q8.95324,12.7709,9.01106,12.691Q9.06888,12.611,9.09926,12.5172Q9.12965,12.4233,9.12965,12.3247Q9.12965,12.2631,9.11764,12.2028Q9.10563,12.1424,9.08207,12.0855Q9.05851,12.0286,9.02431,11.9775Q8.99012,11.9263,8.94659,11.8827Q8.90306,11.8392,8.85188,11.805Q8.8007,11.7708,8.74382,11.7473Q8.68695,11.7237,8.62658,11.7117Q8.5662,11.6997,8.50465,11.6997Q8.4043,11.6997,8.309000000000001,11.7311Q7.49315,12,6.625,12Q4.3986,12,2.8243,10.4257Q1.25,8.8514,1.25,6.625Q1.25,4.3986,2.8243,2.8243Q4.3986,1.25,6.625,1.25Q8.8514,1.25,10.4257,2.8243Q12,4.3986,12,6.625Q12,6.68656,12.012,6.74693Q12.024,6.8073,12.0476,6.86418Q12.0711,6.92105,12.1053,6.97223Q12.1395,7.02341,12.1831,7.06694Q12.2266,7.11047,12.2778,7.14467Q12.3289,7.17887,12.3858,7.20242Q12.4427,7.22598,12.5031,7.23799Q12.5634,7.25,12.625,7.25Q12.6866,7.25,12.7469,7.23799Q12.8073,7.22598,12.8642,7.20242Q12.921,7.17887,12.9722,7.14467Q13.0234,7.11047,13.0669,7.06694Q13.1105,7.02341,13.1447,6.97223Q13.1789,6.92105,13.2024,6.86418Q13.226,6.8073,13.238,6.74693Q13.25,6.68656,13.25,6.625Q13.25,3.88083,11.3096,1.94042Q9.36916,0,6.625,0Q3.88084,0,1.94042,1.94042Q0,3.88084,0,6.625Q0,9.36916,1.94042,11.3096Q3.88083,13.25,6.625,13.25Z" fill-rule="evenodd" fill="#FFFFFF" fill-opacity="1"/></g><g mask="url(#master_svg0_112_28137/112_19069)"><g><path d="M10.25211345953369,5.71841353125L14.649454459533692,5.25623450125C14.729704459533691,5.24779919125,14.810764459533692,5.26852373125,14.880024459533692,5.31519143125C15.05371445953369,5.43221553125,15.110004459533691,5.67879253125,15.00575445953369,5.86593453125L13.13564445953369,9.22300453125C13.119184459533692,9.252544531249999,13.099214459533691,9.27954453125,13.076244459533692,9.303314531249999C12.93067445953369,9.45389453125,12.698454459533691,9.44513453125,12.557574459533692,9.28376453125L10.030356459533692,6.38887453125C9.974178459533691,6.32451453125,9.93872785953369,6.24213653125,9.92951924953369,6.1545225312500005C9.906427459533692,5.93481953125,10.050859459533692,5.73956553125,10.25211345953369,5.71841353125Z" fill-rule="evenodd" fill="#FFFFFF" fill-opacity="1"/></g></g></g></g></svg>